<mxfile host="app.diagrams.net" modified="2023-11-11T14:26:41.183Z" agent="Mozilla/5.0 (Macintosh; Intel Mac OS X 10_15_7) AppleWebKit/537.36 (KHTML, like Gecko) Chrome/119.0.0.0 Safari/537.36" version="22.1.0" etag="kKm8hoF5b5uOz2yW87qc" type="github">
  <diagram name="Page-1" id="ZsGVpSYtSNG0tmEqTt9_">
    <mxGraphModel>
      <root>
        <mxCell id="0" />
        <mxCell id="1" parent="0" />
      </root>
    </mxGraphModel>
  </diagram>
</mxfile>
